<svg width="18" height="18" viewBox="0 0 18 18" fill="none" xmlns="http://www.w3.org/2000/svg">
<g clip-path="url(#clip0_2_31)">
<path d="M17.768 16.704L13.3094 12.2418C14.3643 10.948 15.0002 9.30128 15.0002 7.5039C15.0002 3.36882 11.637 0.00195312 7.49827 0.00195312C3.35952 0.00195312 0 3.36882 0 7.5039C0 11.639 3.36319 15.0022 7.50195 15.0022C9.29565 15.0022 10.946 14.3663 12.2398 13.3114L16.6984 17.7699C17.0034 18.075 17.4666 18.075 17.7716 17.7699C18.0767 17.4648 18.0767 17.0091 17.768 16.704ZM1.49598 7.5039C1.49598 4.19216 4.18653 1.50161 7.49827 1.50161C10.81 1.50161 13.5042 4.19584 13.5042 7.50757C13.5042 10.8193 10.81 13.5135 7.49827 13.5135C4.18653 13.5135 1.49598 10.8156 1.49598 7.5039Z" fill="white" fill-opacity="0.7"/>
</g>
<defs>
<clipPath id="clip0_2_31">
<rect width="18" height="18" fill="white"/>
</clipPath>
</defs>
</svg>
